<svg width="382" height="60" viewBox="0 0 382 60" fill="none" xmlns="http://www.w3.org/2000/svg">
<path d="M0 5C0 2.23858 2.23858 0 5 0H267.034C268.298 0 269.514 0.478426 270.439 1.33907L324.189 51.3391C327.515 54.4327 325.326 60 320.784 60H4.99999C2.23857 60 0 57.7614 0 55V5Z" fill="url(#paint0_linear_54_46)"/>
<path d="M368 59H352.479C349.058 59 345.775 57.6519 343.342 55.248L310.953 23.248C302.687 15.0815 308.47 1 320.09 1H368C375.18 1 381 6.8203 381 14V46C381 53.1797 375.18 59 368 59Z" fill="black" stroke="#FF64A3" stroke-width="2"/>
<path d="M136.276 29.86L136.628 29.112C137.904 29.1413 138.96 29.3467 139.796 29.728C140.632 30.0947 141.248 30.6007 141.644 31.246C142.04 31.8767 142.238 32.6027 142.238 33.424C142.238 34.304 142.025 35.0887 141.6 35.778C141.189 36.4673 140.581 37.01 139.774 37.406C138.967 37.802 137.955 38 136.738 38H125.166L126.442 29.53L125.166 21.5H136.32C137.845 21.5 139.026 21.8593 139.862 22.578C140.713 23.282 141.138 24.2573 141.138 25.504C141.138 26.1787 140.977 26.8313 140.654 27.462C140.346 28.0927 139.833 28.628 139.114 29.068C138.41 29.4933 137.464 29.7573 136.276 29.86ZM128.862 37.054L127.432 35.25H135.968C136.76 35.25 137.369 35.0667 137.794 34.7C138.234 34.3187 138.454 33.7907 138.454 33.116C138.454 32.4267 138.205 31.884 137.706 31.488C137.207 31.0773 136.474 30.872 135.506 30.872H128.554V28.188H135.066C135.726 28.188 136.269 28.0047 136.694 27.638C137.134 27.2567 137.354 26.7287 137.354 26.054C137.354 25.5407 137.171 25.1153 136.804 24.778C136.437 24.426 135.909 24.25 135.22 24.25H127.432L128.862 22.446L130.028 29.53L128.862 37.054ZM148.249 30.762C148.249 31.642 148.418 32.3973 148.755 33.028C149.092 33.6587 149.584 34.15 150.229 34.502C150.889 34.8393 151.681 35.008 152.605 35.008C153.544 35.008 154.336 34.8393 154.981 34.502C155.626 34.15 156.118 33.6587 156.455 33.028C156.792 32.3973 156.961 31.642 156.961 30.762V21.5H160.701V30.938C160.701 32.4193 160.364 33.7173 159.689 34.832C159.014 35.932 158.068 36.79 156.851 37.406C155.634 38.022 154.218 38.33 152.605 38.33C150.992 38.33 149.576 38.022 148.359 37.406C147.156 36.79 146.21 35.932 145.521 34.832C144.846 33.7173 144.509 32.4193 144.509 30.938V21.5H148.249V30.762ZM169.13 23.172H172.848V38H169.13V23.172ZM162.552 21.5H179.404V24.8H162.552V21.5ZM186.747 23.172H190.465V38H186.747V23.172ZM180.169 21.5H197.021V24.8H180.169V21.5ZM207.155 38.33C205.233 38.33 203.547 37.9707 202.095 37.252C200.657 36.5333 199.535 35.536 198.729 34.26C197.922 32.9693 197.519 31.466 197.519 29.75C197.519 28.034 197.922 26.538 198.729 25.262C199.535 23.9713 200.657 22.9667 202.095 22.248C203.547 21.5293 205.233 21.17 207.155 21.17C209.076 21.17 210.755 21.5293 212.193 22.248C213.645 22.9667 214.774 23.9713 215.581 25.262C216.387 26.538 216.791 28.034 216.791 29.75C216.791 31.466 216.387 32.9693 215.581 34.26C214.774 35.536 213.645 36.5333 212.193 37.252C210.755 37.9707 209.076 38.33 207.155 38.33ZM207.155 35.008C208.357 35.008 209.391 34.7953 210.257 34.37C211.137 33.9447 211.811 33.336 212.281 32.544C212.765 31.752 213.007 30.8207 213.007 29.75C213.007 28.6793 212.765 27.748 212.281 26.956C211.811 26.164 211.137 25.5553 210.257 25.13C209.391 24.7047 208.357 24.492 207.155 24.492C205.967 24.492 204.933 24.7047 204.053 25.13C203.173 25.5553 202.491 26.164 202.007 26.956C201.537 27.748 201.303 28.6793 201.303 29.75C201.303 30.8207 201.537 31.752 202.007 32.544C202.491 33.336 203.173 33.9447 204.053 34.37C204.933 34.7953 205.967 35.008 207.155 35.008ZM234.656 35.536L233.358 35.734V21.5H236.988V38H232.258L221.698 23.766L222.974 23.568V38H219.366V21.5H224.206L234.656 35.536Z" fill="#1E1E1E"/>
<defs>
<linearGradient id="paint0_linear_54_46" x1="0" y1="30" x2="333.5" y2="30" gradientUnits="userSpaceOnUse">
<stop stop-color="#FDCFE1"/>
<stop offset="0.778846" stop-color="#FF3C8B"/>
</linearGradient>
</defs>
</svg>
