<svg width="154" height="98" viewBox="0 0 154 98" fill="none" xmlns="http://www.w3.org/2000/svg">
<foreignObject x="6.67572e-06" y="-6.45807" width="153.961" height="103.839"><div xmlns="http://www.w3.org/1999/xhtml" style="backdrop-filter:blur(4.5px);clip-path:url(#bgblur_0_54_45_clip_path);height:100%;width:100%"></div></foreignObject><g filter="url(#filter0_dddd_54_45)" data-figma-bg-blur-radius="9">
<path d="M13.9807 24.5419C13.9807 12.3917 23.8304 2.54193 35.9807 2.54193H117.981C130.131 2.54193 139.981 12.3917 139.981 24.5419C139.981 36.6922 130.131 46.5419 117.981 46.5419H35.9806C23.8304 46.5419 13.9807 36.6922 13.9807 24.5419Z" fill="url(#paint0_linear_54_45)" fill-opacity="0.4"/>
<path d="M35.9807 3.54193H117.981C129.579 3.54193 138.981 12.944 138.981 24.5419C138.981 36.1399 129.579 45.5419 117.981 45.5419H35.9807C24.3827 45.5419 14.9807 36.1399 14.9807 24.5419C14.9807 12.944 24.3827 3.54193 35.9807 3.54193Z" stroke="url(#paint1_linear_54_45)" stroke-opacity="0.6" stroke-width="2"/>
</g>
<path d="M39.9207 17.5419V31.0419L38.3807 29.5419H49.6407V32.5419H36.5207V17.5419H39.9207ZM58.7789 32.8419C57.0323 32.8419 55.4989 32.5153 54.1789 31.8619C52.8723 31.2086 51.8523 30.3019 51.1189 29.1419C50.3856 27.9686 50.0189 26.6019 50.0189 25.0419C50.0189 23.4819 50.3856 22.1219 51.1189 20.9619C51.8523 19.7886 52.8723 18.8753 54.1789 18.2219C55.4989 17.5686 57.0323 17.2419 58.7789 17.2419C60.5256 17.2419 62.0523 17.5686 63.3589 18.2219C64.6789 18.8753 65.7056 19.7886 66.4389 20.9619C67.1723 22.1219 67.5389 23.4819 67.5389 25.0419C67.5389 26.6019 67.1723 27.9686 66.4389 29.1419C65.7056 30.3019 64.6789 31.2086 63.3589 31.8619C62.0523 32.5153 60.5256 32.8419 58.7789 32.8419ZM58.7789 29.8219C59.8723 29.8219 60.8123 29.6286 61.5989 29.2419C62.3989 28.8553 63.0123 28.3019 63.4389 27.5819C63.8789 26.8619 64.0989 26.0153 64.0989 25.0419C64.0989 24.0686 63.8789 23.2219 63.4389 22.5019C63.0123 21.7819 62.3989 21.2286 61.5989 20.8419C60.8123 20.4553 59.8723 20.2619 58.7789 20.2619C57.6989 20.2619 56.7589 20.4553 55.9589 20.8419C55.1589 21.2286 54.5389 21.7819 54.0989 22.5019C53.6723 23.2219 53.4589 24.0686 53.4589 25.0419C53.4589 26.0153 53.6723 26.8619 54.0989 27.5819C54.5389 28.3019 55.1589 28.8553 55.9589 29.2419C56.7589 29.6286 57.6989 29.8219 58.7789 29.8219ZM85.06 26.0419C85.0467 26.9486 84.8667 27.8153 84.52 28.6419C84.1867 29.4553 83.7067 30.1819 83.08 30.8219C82.4534 31.4486 81.68 31.9419 80.76 32.3019C79.84 32.6619 78.7734 32.8419 77.56 32.8419C76.3867 32.8419 75.2867 32.6686 74.26 32.3219C73.2467 31.9619 72.3534 31.4486 71.58 30.7819C70.82 30.1153 70.2267 29.3019 69.8 28.3419C69.3734 27.3686 69.16 26.2686 69.16 25.0419C69.16 23.8153 69.3734 22.7219 69.8 21.7619C70.24 20.7886 70.8467 19.9686 71.62 19.3019C72.3934 18.6353 73.3 18.1286 74.34 17.7819C75.38 17.4219 76.5134 17.2419 77.74 17.2419C79.34 17.2419 80.7267 17.4953 81.9 18.0019C83.0734 18.4953 84.02 19.1819 84.74 20.0619C85.4734 20.9419 85.9267 21.9486 86.1 23.0819H82.68C82.5467 22.4686 82.2534 21.9419 81.8 21.5019C81.36 21.0619 80.7934 20.7219 80.1 20.4819C79.42 20.2419 78.6334 20.1219 77.74 20.1219C76.6867 20.1219 75.7734 20.3153 75 20.7019C74.24 21.0753 73.6467 21.6286 73.22 22.3619C72.8067 23.0953 72.6 23.9886 72.6 25.0419C72.6 26.0953 72.82 26.9953 73.26 27.7419C73.7 28.4886 74.3267 29.0619 75.14 29.4619C75.9534 29.8486 76.9134 30.0419 78.02 30.0419C79.1 30.0419 80.0467 29.8753 80.86 29.5419C81.6734 29.1953 82.3134 28.7153 82.78 28.1019C83.26 27.4753 83.5334 26.7353 83.6 25.8819L85.06 26.0419ZM78.48 27.4219V24.9619H86.26V32.5419H83.82L83.36 26.4619L84.06 27.4219H78.48ZM94.0988 17.5419H97.4988V32.5419H94.0988V17.5419ZM114.464 30.3019L113.284 30.4819V17.5419H116.584V32.5419H112.284L102.684 19.6019L103.844 19.4219V32.5419H100.564V17.5419H104.964L114.464 30.3019Z" fill="white"/>
<defs>
<filter id="filter0_dddd_54_45" x="6.67572e-06" y="-6.45807" width="153.961" height="103.839" filterUnits="userSpaceOnUse" color-interpolation-filters="sRGB">
<feFlood flood-opacity="0" result="BackgroundImageFix"/>
<feColorMatrix in="SourceAlpha" type="matrix" values="0 0 0 0 0 0 0 0 0 0 0 0 0 0 0 0 0 0 127 0" result="hardAlpha"/>
<feOffset dy="2.54194"/>
<feGaussianBlur stdDeviation="2.54194"/>
<feColorMatrix type="matrix" values="0 0 0 0 1 0 0 0 0 0.592157 0 0 0 0 0.933333 0 0 0 0.15 0"/>
<feBlend mode="normal" in2="BackgroundImageFix" result="effect1_dropShadow_54_45"/>
<feColorMatrix in="SourceAlpha" type="matrix" values="0 0 0 0 0 0 0 0 0 0 0 0 0 0 0 0 0 0 127 0" result="hardAlpha"/>
<feOffset dy="8.89677"/>
<feGaussianBlur stdDeviation="4.44839"/>
<feColorMatrix type="matrix" values="0 0 0 0 1 0 0 0 0 0.592157 0 0 0 0 0.933333 0 0 0 0.13 0"/>
<feBlend mode="normal" in2="effect1_dropShadow_54_45" result="effect2_dropShadow_54_45"/>
<feColorMatrix in="SourceAlpha" type="matrix" values="0 0 0 0 0 0 0 0 0 0 0 0 0 0 0 0 0 0 127 0" result="hardAlpha"/>
<feOffset dy="20.3355"/>
<feGaussianBlur stdDeviation="6.35484"/>
<feColorMatrix type="matrix" values="0 0 0 0 1 0 0 0 0 0.592157 0 0 0 0 0.933333 0 0 0 0.08 0"/>
<feBlend mode="normal" in2="effect2_dropShadow_54_45" result="effect3_dropShadow_54_45"/>
<feColorMatrix in="SourceAlpha" type="matrix" values="0 0 0 0 0 0 0 0 0 0 0 0 0 0 0 0 0 0 127 0" result="hardAlpha"/>
<feOffset dy="36.8581"/>
<feGaussianBlur stdDeviation="6.99032"/>
<feColorMatrix type="matrix" values="0 0 0 0 1 0 0 0 0 0.592157 0 0 0 0 0.933333 0 0 0 0.02 0"/>
<feBlend mode="normal" in2="effect3_dropShadow_54_45" result="effect4_dropShadow_54_45"/>
<feBlend mode="normal" in="SourceGraphic" in2="effect4_dropShadow_54_45" result="shape"/>
</filter>
<clipPath id="bgblur_0_54_45_clip_path" transform="translate(-6.67572e-06 6.45807)"><path d="M13.9807 24.5419C13.9807 12.3917 23.8304 2.54193 35.9807 2.54193H117.981C130.131 2.54193 139.981 12.3917 139.981 24.5419C139.981 36.6922 130.131 46.5419 117.981 46.5419H35.9806C23.8304 46.5419 13.9807 36.6922 13.9807 24.5419Z"/>
</clipPath><linearGradient id="paint0_linear_54_45" x1="126.443" y1="4.79835" x2="8.43098" y2="42.8974" gradientUnits="userSpaceOnUse">
<stop stop-color="#FFDCF9"/>
<stop offset="0.538462" stop-color="#FF97EE"/>
<stop offset="1" stop-color="#FFDCF9"/>
</linearGradient>
<linearGradient id="paint1_linear_54_45" x1="83.7492" y1="46.5419" x2="83.7492" y2="2.54194" gradientUnits="userSpaceOnUse">
<stop stop-color="white"/>
<stop offset="0.522614" stop-color="#FF6AE6"/>
<stop offset="1" stop-color="white"/>
</linearGradient>
</defs>
</svg>
